<?xml version="1.0" encoding="utf-8"?>
<!-- Generator: Adobe Illustrator 21.0.0, SVG Export Plug-In . SVG Version: 6.00 Build 0)  -->
<svg version="1.1" id="Layer_1" xmlns="http://www.w3.org/2000/svg" xmlns:xlink="http://www.w3.org/1999/xlink" x="0px" y="0px"
	 width="40px" height="40px" viewBox="-5 -5 50 50" style="enable-background:new -5 -5 50 50;" xml:space="preserve">
<style type="text/css">
	.st0{fill:#808080;stroke:#000000;stroke-miterlimit:10;shape-rendering="optimizeSpeed"}
</style>
<g>
	<path class="st0" d="M11.8,23.1h16.3c0-4.8-3.1-7.8-7.7-7.8C15,15.4,12.1,19.5,11.8,23.1z M20.5,11.1c8.4,0,13.1,6.1,13.1,14
		c0,0.8,0,2.1,0,2.1H11.8c0.1,4.5,4,8.3,8.9,8.3c3.1,0,6.3-1.4,8-4.2l3.8,3c-2.4,3.3-6.4,5.6-11.7,5.6c-8.9,0-14.5-6.5-14.5-14.1
		C6.3,17.6,11.7,11.1,20.5,11.1z M8.8,0v4.5h22.6V0H8.8z"/>
</g>
</svg>
